<mxfile host="app.diagrams.net" modified="2024-05-13T03:12:54.842Z" agent="Mozilla/5.0 (Windows NT 10.0; Win64; x64; rv:125.0) Gecko/20100101 Firefox/125.0" etag="XL1xusxxVklImrkoPPwg" version="24.4.0" type="github">
  <diagram name="Page-1" id="GbDOeAn0TekX4Tb3FelW">
    <mxGraphModel dx="989" dy="539" grid="1" gridSize="10" guides="1" tooltips="1" connect="1" arrows="1" fold="1" page="1" pageScale="1" pageWidth="850" pageHeight="1100" math="0" shadow="0">
      <root>
        <mxCell id="0" />
        <mxCell id="1" parent="0" />
        <mxCell id="zyvEyU40Wb9VNqry9rhq-90" value="&lt;div&gt;Residual Block&lt;br&gt;&lt;/div&gt;" style="rounded=0;whiteSpace=wrap;html=1;" vertex="1" parent="1">
          <mxGeometry x="377.5" y="130" width="110" height="20" as="geometry" />
        </mxCell>
        <mxCell id="zyvEyU40Wb9VNqry9rhq-91" value="&lt;div&gt;Residual Block&lt;br&gt;&lt;/div&gt;" style="rounded=0;whiteSpace=wrap;html=1;" vertex="1" parent="1">
          <mxGeometry x="377.5" y="160" width="110" height="20" as="geometry" />
        </mxCell>
        <mxCell id="zyvEyU40Wb9VNqry9rhq-93" value="&lt;div&gt;Residual Block&lt;br&gt;&lt;/div&gt;" style="rounded=0;whiteSpace=wrap;html=1;" vertex="1" parent="1">
          <mxGeometry x="377.5" y="240" width="110" height="20" as="geometry" />
        </mxCell>
        <mxCell id="zyvEyU40Wb9VNqry9rhq-94" value="&lt;div&gt;Residual Block&lt;br&gt;&lt;/div&gt;" style="rounded=0;whiteSpace=wrap;html=1;" vertex="1" parent="1">
          <mxGeometry x="377.5" y="270" width="110" height="20" as="geometry" />
        </mxCell>
        <mxCell id="zyvEyU40Wb9VNqry9rhq-96" value="" style="endArrow=none;dashed=1;html=1;dashPattern=1 3;strokeWidth=2;rounded=0;curved=0;" edge="1" parent="1" source="zyvEyU40Wb9VNqry9rhq-93" target="zyvEyU40Wb9VNqry9rhq-115">
          <mxGeometry width="50" height="50" relative="1" as="geometry">
            <mxPoint x="432.36" y="230" as="sourcePoint" />
            <mxPoint x="440" y="210" as="targetPoint" />
          </mxGeometry>
        </mxCell>
        <mxCell id="zyvEyU40Wb9VNqry9rhq-97" value="Convolutional Block" style="rounded=0;whiteSpace=wrap;html=1;" vertex="1" parent="1">
          <mxGeometry x="387.5" y="100" width="90" height="20" as="geometry" />
        </mxCell>
        <mxCell id="zyvEyU40Wb9VNqry9rhq-98" value="" style="endArrow=classicThin;html=1;rounded=0;endFill=1;fontSize=9;startSize=6;endSize=3;" edge="1" parent="1" source="zyvEyU40Wb9VNqry9rhq-97" target="zyvEyU40Wb9VNqry9rhq-90">
          <mxGeometry width="50" height="50" relative="1" as="geometry">
            <mxPoint x="433" y="120" as="sourcePoint" />
            <mxPoint x="470" y="160" as="targetPoint" />
          </mxGeometry>
        </mxCell>
        <mxCell id="zyvEyU40Wb9VNqry9rhq-102" value="" style="endArrow=classicThin;html=1;rounded=0;endFill=1;fontSize=9;startSize=6;endSize=3;" edge="1" parent="1" source="zyvEyU40Wb9VNqry9rhq-90" target="zyvEyU40Wb9VNqry9rhq-91">
          <mxGeometry width="50" height="50" relative="1" as="geometry">
            <mxPoint x="453" y="140" as="sourcePoint" />
            <mxPoint x="453" y="150" as="targetPoint" />
          </mxGeometry>
        </mxCell>
        <mxCell id="zyvEyU40Wb9VNqry9rhq-104" value="" style="endArrow=classicThin;html=1;rounded=0;endFill=1;fontSize=9;startSize=6;endSize=3;" edge="1" parent="1" source="zyvEyU40Wb9VNqry9rhq-93" target="zyvEyU40Wb9VNqry9rhq-94">
          <mxGeometry width="50" height="50" relative="1" as="geometry">
            <mxPoint x="463" y="150" as="sourcePoint" />
            <mxPoint x="463" y="160" as="targetPoint" />
          </mxGeometry>
        </mxCell>
        <mxCell id="zyvEyU40Wb9VNqry9rhq-105" value="" style="endArrow=classic;html=1;rounded=0;endSize=4;" edge="1" parent="1" source="zyvEyU40Wb9VNqry9rhq-94" target="zyvEyU40Wb9VNqry9rhq-106">
          <mxGeometry width="50" height="50" relative="1" as="geometry">
            <mxPoint x="430" y="210" as="sourcePoint" />
            <mxPoint x="480" y="330" as="targetPoint" />
          </mxGeometry>
        </mxCell>
        <mxCell id="zyvEyU40Wb9VNqry9rhq-106" value="Policy Head" style="rounded=0;whiteSpace=wrap;html=1;" vertex="1" parent="1">
          <mxGeometry x="440" y="310" width="70" height="40" as="geometry" />
        </mxCell>
        <mxCell id="zyvEyU40Wb9VNqry9rhq-108" value="Value Head" style="rounded=0;whiteSpace=wrap;html=1;" vertex="1" parent="1">
          <mxGeometry x="350" y="310" width="75" height="40" as="geometry" />
        </mxCell>
        <mxCell id="zyvEyU40Wb9VNqry9rhq-109" value="" style="endArrow=classic;html=1;rounded=0;endSize=4;" edge="1" parent="1" source="zyvEyU40Wb9VNqry9rhq-94" target="zyvEyU40Wb9VNqry9rhq-108">
          <mxGeometry width="50" height="50" relative="1" as="geometry">
            <mxPoint x="430" y="210" as="sourcePoint" />
            <mxPoint x="480" y="160" as="targetPoint" />
          </mxGeometry>
        </mxCell>
        <mxCell id="zyvEyU40Wb9VNqry9rhq-113" value="" style="shape=flexArrow;endArrow=classic;html=1;rounded=0;" edge="1" parent="1">
          <mxGeometry width="50" height="50" relative="1" as="geometry">
            <mxPoint x="432.21" y="40" as="sourcePoint" />
            <mxPoint x="432.21" y="90" as="targetPoint" />
          </mxGeometry>
        </mxCell>
        <mxCell id="zyvEyU40Wb9VNqry9rhq-114" value="&lt;div&gt;Game State&lt;/div&gt;" style="edgeLabel;html=1;align=center;verticalAlign=middle;resizable=0;points=[];" vertex="1" connectable="0" parent="zyvEyU40Wb9VNqry9rhq-113">
          <mxGeometry x="-0.2743" relative="1" as="geometry">
            <mxPoint y="-8" as="offset" />
          </mxGeometry>
        </mxCell>
        <mxCell id="zyvEyU40Wb9VNqry9rhq-115" value="&lt;div&gt;Residual Block&lt;br&gt;&lt;/div&gt;" style="rounded=0;whiteSpace=wrap;html=1;" vertex="1" parent="1">
          <mxGeometry x="377.5" y="190" width="110" height="20" as="geometry" />
        </mxCell>
        <mxCell id="zyvEyU40Wb9VNqry9rhq-117" value="" style="endArrow=classicThin;html=1;rounded=0;endFill=1;fontSize=9;startSize=6;endSize=3;" edge="1" parent="1" source="zyvEyU40Wb9VNqry9rhq-91" target="zyvEyU40Wb9VNqry9rhq-115">
          <mxGeometry width="50" height="50" relative="1" as="geometry">
            <mxPoint x="443" y="160" as="sourcePoint" />
            <mxPoint x="443" y="170" as="targetPoint" />
          </mxGeometry>
        </mxCell>
        <mxCell id="zyvEyU40Wb9VNqry9rhq-118" value="The exact number of Residual Blocks can vary depending on the complexity of the game" style="text;strokeColor=none;fillColor=none;align=left;verticalAlign=middle;spacingLeft=4;spacingRight=4;overflow=hidden;points=[[0,0.5],[1,0.5]];portConstraint=eastwest;rotatable=0;whiteSpace=wrap;html=1;" vertex="1" parent="1">
          <mxGeometry x="500" y="185" width="140" height="85" as="geometry" />
        </mxCell>
      </root>
    </mxGraphModel>
  </diagram>
</mxfile>
